<?xml version="1.0" encoding="UTF-8"?>
<svg width="18" height="18" viewBox="0 0 18 18" xmlns="http://www.w3.org/2000/svg">
    <path d="M15.145 13.74c-.812 1.183-1.682 2.358-3.035 2.387-1.325.03-1.75-.785-3.267-.785-1.517 0-1.989.762-3.243.812-1.3.05-2.29-1.28-3.109-2.458-1.694-2.442-1.89-5.311-.835-6.84.828-1.204 2.11-1.91 3.337-1.93 1.292-.02 2.514.866 3.307.866.794 0 2.284-1.07 3.85-.913.656.027 2.496.264 3.676 1.99-.094.058-2.196 1.283-2.172 3.83.03 3.044 2.68 4.05 2.71 4.064-.024.074-.417 1.43-1.219 2.977zM11.89 3.09c.698-.847 1.167-2.022.987-3.19-.987.04-2.18.657-2.886 1.485-.634.734-1.188 1.91-.987 3.037 1.1.085 2.224-.557 2.886-1.332z" fill="#000000" fill-rule="nonzero"/>
</svg> 